<?xml version="1.0" encoding="UTF-8"?>
<svg version="1.1" xmlns="http://www.w3.org/2000/svg" width="340" height="120">
<path d="M0 0 C0.99 0 1.98 0 3 0 C2.52620562 8.47881638 0.56903862 16.42807328 -1.5625 24.625 C-1.89584679 25.92821563 -2.22853367 27.23160023 -2.56054688 28.53515625 C-3.36725 31.69182064 -4.18053237 34.84662983 -5 38 C-6.98 38.495 -6.98 38.495 -9 39 C-8.46048934 32.31006781 -7.11293829 26.36539272 -5 20 C-6.32 20.33 -7.64 20.66 -9 21 C-10.32 26.28 -11.64 31.56 -13 37 C-14.32 37 -15.64 37 -17 37 C-16.67 34.69 -16.34 32.38 -16 30 C-16.556875 29.938125 -17.11375 29.87625 -17.6875 29.8125 C-20.94987173 28.66626128 -22.68667874 26.50609803 -25 24 C-25.763125 24.78375 -26.52625 25.5675 -27.3125 26.375 C-32.04761905 31 -32.04761905 31 -36 31 C-36 29.68 -36 28.36 -36 27 C-34.42578125 25.46484375 -34.42578125 25.46484375 -32.3125 23.9375 C-27.27756117 19.84158173 -25.24692852 14.97380515 -23 9 C-25.64 9 -28.28 9 -31 9 C-30.67 7.68 -30.34 6.36 -30 5 C-23.4 5 -16.8 5 -10 5 C-9.67 3.68 -9.34 2.36 -9 1 C-7.68 1 -6.36 1 -5 1 C-5.55145271 6.23880078 -6.42922093 10.97350697 -8 16 C-6.68 16 -5.36 16 -4 16 C-2.68 10.72 -1.36 5.44 0 0 Z M-19 9 C-20.50059509 13.76088081 -21.329351 16.94260993 -19.8125 21.8125 C-18.33966631 24.40265579 -16.80944367 26.65027174 -15 29 C-14.32749476 26.41806023 -13.66182099 23.83467929 -13 21.25 C-12.80921875 20.52039062 -12.6184375 19.79078125 -12.421875 19.0390625 C-11.53484036 15.55428354 -11 12.61876278 -11 9 C-13.64 9 -16.28 9 -19 9 Z " fill="#3B77D8" transform="translate(139,43)"/>
<path d="M0 0 C9.57 0 19.14 0 29 0 C29 1.32 29 2.64 29 4 C24.71 4 20.42 4 16 4 C17.39891338 8.91739398 17.39891338 8.91739398 20.1640625 10.36328125 C20.97617188 10.67652344 21.78828125 10.98976563 22.625 11.3125 C23.44226563 11.63863281 24.25953125 11.96476562 25.1015625 12.30078125 C25.72804687 12.53152344 26.35453125 12.76226562 27 13 C26.67 14.32 26.34 15.64 26 17 C20.36007889 15.83311977 16.60516269 14.45387201 12 11 C11.525625 11.433125 11.05125 11.86625 10.5625 12.3125 C6.22922291 15.1661215 1.20755218 17 -4 17 C-4 15.68 -4 14.36 -4 13 C-3.16855469 12.67386719 -2.33710938 12.34773438 -1.48046875 12.01171875 C0.14955078 11.35623047 0.14955078 11.35623047 1.8125 10.6875 C3.43091797 10.04361328 3.43091797 10.04361328 5.08203125 9.38671875 C8.25791203 8.07723256 8.25791203 8.07723256 11 5 C7.37 4.67 3.74 4.34 0 4 C0 2.68 0 1.36 0 0 Z " fill="#3A76D7" transform="translate(148,46)"/>
<path d="M0 0 C2 2 2 2 2.4375 4.8125 C1.85847714 9.03109512 0.2480597 10.35623047 -3 13 C-6.47386432 14.15795477 -9.27769304 14.16829849 -12.9375 14.1875 C-14.16339844 14.20167969 -15.38929688 14.21585938 -16.65234375 14.23046875 C-19.77197896 14.01569806 -21.45443322 13.74816032 -24 12 C-25.462958 9.074084 -25.44523109 7.24382653 -25 4 C-18.65357063 -2.64161213 -8.31775909 -4.5369595 0 0 Z M-20 5 C-20 6.32 -20 7.64 -20 9 C-14.13267998 11.02689237 -10.66551512 11.073945 -4.78515625 9.1171875 C-2.80022392 8.13194056 -2.80022392 8.13194056 -2.24609375 5.8828125 C-2.16488281 5.26148437 -2.08367187 4.64015625 -2 4 C-7.67968966 0.76734216 -14.93819082 0.42804332 -20 5 Z " fill="#3B79D9" transform="translate(205,68)"/>
<path d="M0 0 C11.88 0 23.76 0 36 0 C35.67 0.99 35.34 1.98 35 3 C29.72 3 24.44 3 19 3 C18.87625 4.19625 18.7525 5.3925 18.625 6.625 C18.17674946 10.27596813 17.29553163 13.54524899 16 17 C14.68 17 13.36 17 12 17 C12.99 12.38 13.98 7.76 15 3 C10.05 3 5.1 3 0 3 C0 2.01 0 1.02 0 0 Z " fill="#3C78D8" transform="translate(140,65)"/>
<path d="M0 0 C1.32 0 2.64 0 4 0 C3.01 4.62 2.02 9.24 1 14 C7.27 13.67 13.54 13.34 20 13 C20 13.99 20 14.98 20 16 C11.92046224 17.81344335 4.26747851 18.23658921 -4 18 C-3.41632611 11.69632197 -1.95928381 6.01339937 0 0 Z " fill="#3A75D7" transform="translate(184,46)"/>
<path d="M0 0 C1.32 0 2.64 0 4 0 C3.39496146 5.6555181 2.37814297 11.00213991 0.9375 16.5 C0.75123047 17.22703125 0.56496094 17.9540625 0.37304688 18.703125 C-0.08026455 20.46987724 -0.5395002 22.23510775 -1 24 C-2.32 24.33 -3.64 24.66 -5 25 C-4.38580826 16.40131562 -2.19092979 8.30515248 0 0 Z " fill="#3B76D7" transform="translate(210,43)"/>
</svg>
